<?xml version="1.0" encoding="utf-8"?>
<!--Generator: Adobe Illustrator 24.0.1, SVG Export Plug-In . SVG Version: 6.00 Build 0)-->
<svg version="1.1" id="圖層_1" xmlns="http://www.w3.org/2000/svg" xmlns:xlink="http://www.w3.org/1999/xlink" x="0px" y="0px" viewBox="0 0 2122 800" style="enable-background:new 0 0 2122 555" xml:space="preserve" width="100%">
    <style type="text/css">
        .st0,.st1{ fill:none;stroke:#7fceff;stroke-width:3;stroke-miterlimit:10 }
		.st1{ stroke:#2b9bd6 }
		.years-img{ height:160px;width:160px }
		.bg-rect{
			width:400px;
			fill:rgb(3, 100, 183);
		}
		text{
			font-family:&quot;Arial&quot;,&quot;Noto Sans TC&quot;,&quot;Microsoft JhengHei&quot;,sans-serif;
			font-size: 2em;
			fill: #fff;
		}
    </style>
    <g transform="translate(0, 350)">
        <line class="st0" x1="13.54" y1="284.5" x2="485.86" y2="284.5"/>
        <path class="st0" d="M483.46,284.5c0,0-11.01,114.92,105.52,114.92v145.67"/>
    </g>
    <g transform="translate(0, 350)">
        <path class="st1" d="M796.8,287.83c0,0-10.74-108.66,105.8-108.66V9.65"/>
        <path class="st1" d="M794.82,284.5h-90.73c0,0,11.01,114.92-105.52,114.92"/>
    </g>
    
    <g transform="translate(905, 290)" width="500" class="bg">
        <rect 
            height="85"
            transform="translate(-200, 0)"
			width="400px"
			stroke="rgb(3, 100, 183)"
            stroke-width="100"
            fill="transparent"
        />
        <text dominant-baseline="baseline" text-anchor="middle">
			<tspan x="0" dy="1.8em">台灣公司開業</tspan>
        </text>
    </g>
    <g transform="translate(0, 350)">
        <path class="st0" d="M1128.4,294.09c0,0-10.74,105.32,105.8,105.32v145.67"/>
        <path class="st0" d="M1128.4,294.09h-110.69c0,0,11.01-114.92-105.52-114.92"/>
    </g>
    <g transform="translate(0, 350)">
        <path class="st0" d="M2105.04,294.09h-502.52c0,0,11.01-114.92-105.52-114.92"/>
    </g>
    <g transform="translate(0, 350)">
        <path class="st1" d="M1380.11,287.83c0,0-10.74-108.66,105.8-108.66V9.65"/>
        <path class="st1" d="M1379.85,284.5h-32.69c0,0,11.01,114.92-105.52,114.92"/>
    </g>
    <g transform="translate(0, 560)">
        <image class="years-img" href="milestone-2017.png" x="520"/>
        <image class="years-img" href="milestone-2018.png" x="825"/>
        <image class="years-img" href="milestone-2019.png" x="1160"/>
        <image class="years-img" href="milestone-2019-2.png" x="1410"/>
    </g>
    
    <g transform="translate(1286, 0)" class="bg">
        <rect class="bg-rect" height="380"/>
        <text dominant-baseline="baseline" text-anchor="start">
            <tspan x="30" dy="1.8em">美國公司開業</tspan> 
            <tspan x="30" dy="3em">加入INATBA，Eclipse</tspan> 
            <tspan x="30" dy="1.3em">Foundation和eCl @ ss</tspan> 
            <tspan x="30" dy="3em">宣布與Yallvend合作</tspan> 
            <tspan x="30" dy="1.3em">自動販賣機套件升級</tspan> 
        </text>
    </g>
</svg>
