<?xml version="1.0" encoding="utf-8"?>
<!-- Generator: Adobe Illustrator 24.0.1, SVG Export Plug-In . SVG Version: 6.00 Build 0)  -->
<svg version="1.1" id="圖層_1" xmlns="http://www.w3.org/2000/svg" xmlns:xlink="http://www.w3.org/1999/xlink" x="0px" y="0px"
	 viewBox="0 0 2122 555" style="enable-background:new 0 0 2122 555;" xml:space="preserve">
<style type="text/css">
	.st0{fill:none;stroke:#7FCEFF;stroke-width:3;stroke-miterlimit:10;}
	.st1{fill:none;stroke:#2B9BD6;stroke-width:3;stroke-miterlimit:10;}
</style>
<g>
	<line class="st0" x1="13.54" y1="284.5" x2="485.86" y2="284.5"/>
	<path class="st0" d="M483.46,284.5c0,0-11.01,114.92,105.52,114.92v145.67"/>
</g>
<g>
	<path class="st1" d="M796.8,287.83c0,0-10.74-108.66,105.8-108.66V9.65"/>
	<path class="st1" d="M794.82,284.5h-90.73c0,0,11.01,114.92-105.52,114.92"/>
</g>
<g>
	<g>
		<path class="st0" d="M1128.4,294.09c0,0-10.74,105.32,105.8,105.32v145.67"/>
		<path class="st0" d="M1128.4,294.09h-110.69c0,0,11.01-114.92-105.52-114.92"/>
	</g>
</g>
<path class="st0" d="M2105.04,294.09h-502.52c0,0,11.01-114.92-105.52-114.92"/>
<g>
	<path class="st1" d="M1380.11,287.83c0,0-10.74-108.66,105.8-108.66V9.65"/>
	<path class="st1" d="M1379.85,284.5h-32.69c0,0,11.01,114.92-105.52,114.92"/>
</g>
</svg>
